<svg xmlns="http://www.w3.org/2000/svg" xmlns:xlink="http://www.w3.org/1999/xlink" contentStyleType="text/css" height="1906px" preserveAspectRatio="none" style="width:1174px;height:1906px;background:#FFFFFF;" version="1.1" viewBox="0 0 1174 1906" width="1174px" zoomAndPan="magnify"><defs/><g><rect fill="none" height="412.6641" style="stroke:#000000;stroke-width:1.5;" width="1069.7158" x="97.8594" y="881.75"/><rect fill="none" height="133.6641" style="stroke:#000000;stroke-width:1.5;" width="1049.7158" x="107.8594" y="1153.75"/><rect fill="none" height="441.7969" style="stroke:#000000;stroke-width:1.5;" width="1157.5752" x="10" y="1366.6797"/><rect fill="none" height="323.2656" style="stroke:#000000;stroke-width:1.5;" width="1137.5752" x="20" y="1478.2109"/><line style="stroke:#181818;stroke-width:0.5;stroke-dasharray:5.0,5.0;" x1="68" x2="68" y1="81.2969" y2="1825.4766"/><line style="stroke:#181818;stroke-width:0.5;stroke-dasharray:5.0,5.0;" x1="159.8594" x2="159.8594" y1="81.2969" y2="1825.4766"/><line style="stroke:#181818;stroke-width:0.5;stroke-dasharray:5.0,5.0;" x1="569.1665" x2="569.1665" y1="81.2969" y2="1825.4766"/><line style="stroke:#181818;stroke-width:0.5;stroke-dasharray:5.0,5.0;" x1="670.3032" x2="670.3032" y1="81.2969" y2="1825.4766"/><line style="stroke:#181818;stroke-width:0.5;stroke-dasharray:5.0,5.0;" x1="1099.9131" x2="1099.9131" y1="81.2969" y2="1825.4766"/><text fill="#000000" font-family="sans-serif" font-size="14" lengthAdjust="spacing" textLength="71.8594" x="30" y="77.9951">Оператор</text><ellipse cx="68.9297" cy="13.5" fill="#E2E2F0" rx="8" ry="8" style="stroke:#181818;stroke-width:0.5;"/><path d="M68.9297,21.5 L68.9297,48.5 M55.9297,29.5 L81.9297,29.5 M68.9297,48.5 L55.9297,63.5 M68.9297,48.5 L81.9297,63.5 " fill="none" style="stroke:#181818;stroke-width:0.5;"/><text fill="#000000" font-family="sans-serif" font-size="14" lengthAdjust="spacing" textLength="71.8594" x="30" y="1837.4717">Оператор</text><ellipse cx="68.9297" cy="1849.2734" fill="#E2E2F0" rx="8" ry="8" style="stroke:#181818;stroke-width:0.5;"/><path d="M68.9297,1857.2734 L68.9297,1884.2734 M55.9297,1865.2734 L81.9297,1865.2734 M68.9297,1884.2734 L55.9297,1899.2734 M68.9297,1884.2734 L81.9297,1899.2734 " fill="none" style="stroke:#181818;stroke-width:0.5;"/><text fill="#000000" font-family="sans-serif" font-size="14" lengthAdjust="spacing" textLength="79.1533" x="117.8594" y="77.9951">Инспектор</text><ellipse cx="160.436" cy="13.5" fill="#E2E2F0" rx="8" ry="8" style="stroke:#181818;stroke-width:0.5;"/><path d="M160.436,21.5 L160.436,48.5 M147.436,29.5 L173.436,29.5 M160.436,48.5 L147.436,63.5 M160.436,48.5 L173.436,63.5 " fill="none" style="stroke:#181818;stroke-width:0.5;"/><text fill="#000000" font-family="sans-serif" font-size="14" lengthAdjust="spacing" textLength="79.1533" x="117.8594" y="1837.4717">Инспектор</text><ellipse cx="160.436" cy="1849.2734" fill="#E2E2F0" rx="8" ry="8" style="stroke:#181818;stroke-width:0.5;"/><path d="M160.436,1857.2734 L160.436,1884.2734 M147.436,1865.2734 L173.436,1865.2734 M160.436,1884.2734 L147.436,1899.2734 M160.436,1884.2734 L173.436,1899.2734 " fill="none" style="stroke:#181818;stroke-width:0.5;"/><text fill="#000000" font-family="sans-serif" font-size="14" lengthAdjust="spacing" textLength="56.1367" x="538.1665" y="77.9951">Модель</text><ellipse cx="569.2349" cy="49" fill="#E2E2F0" rx="12" ry="12" style="stroke:#181818;stroke-width:0.5;"/><line style="stroke:#181818;stroke-width:0.5;" x1="557.2349" x2="581.2349" y1="63" y2="63"/><text fill="#000000" font-family="sans-serif" font-size="14" lengthAdjust="spacing" textLength="56.1367" x="538.1665" y="1837.4717">Модель</text><ellipse cx="569.2349" cy="1856.7734" fill="#E2E2F0" rx="12" ry="12" style="stroke:#181818;stroke-width:0.5;"/><line style="stroke:#181818;stroke-width:0.5;" x1="557.2349" x2="581.2349" y1="1870.7734" y2="1870.7734"/><text fill="#000000" font-family="sans-serif" font-size="14" lengthAdjust="spacing" textLength="114.8164" x="610.3032" y="77.9951">Представление</text><path d="M650.2114,37 L650.2114,61 M650.2114,49 L667.2114,49 " fill="none" style="stroke:#181818;stroke-width:0.5;"/><ellipse cx="679.2114" cy="49" fill="#E2E2F0" rx="12" ry="12" style="stroke:#181818;stroke-width:0.5;"/><text fill="#000000" font-family="sans-serif" font-size="14" lengthAdjust="spacing" textLength="114.8164" x="610.3032" y="1837.4717">Представление</text><path d="M650.2114,1844.7734 L650.2114,1868.7734 M650.2114,1856.7734 L667.2114,1856.7734 " fill="none" style="stroke:#181818;stroke-width:0.5;"/><ellipse cx="679.2114" cy="1856.7734" fill="#E2E2F0" rx="12" ry="12" style="stroke:#181818;stroke-width:0.5;"/><text fill="#000000" font-family="sans-serif" font-size="14" lengthAdjust="spacing" textLength="88.6621" x="1052.9131" y="77.9951">Контроллер</text><ellipse cx="1100.2441" cy="49" fill="#E2E2F0" rx="12" ry="12" style="stroke:#181818;stroke-width:0.5;"/><polygon fill="#181818" points="1096.2441,37,1102.2441,32,1100.2441,37,1102.2441,42,1096.2441,37" style="stroke:#181818;stroke-width:1.0;"/><text fill="#000000" font-family="sans-serif" font-size="14" lengthAdjust="spacing" textLength="88.6621" x="1052.9131" y="1837.4717">Контроллер</text><ellipse cx="1100.2441" cy="1856.7734" fill="#E2E2F0" rx="12" ry="12" style="stroke:#181818;stroke-width:0.5;"/><polygon fill="#181818" points="1096.2441,1844.7734,1102.2441,1839.7734,1100.2441,1844.7734,1102.2441,1849.7734,1096.2441,1844.7734" style="stroke:#181818;stroke-width:1.0;"/><polygon fill="#181818" points="1088.2441,108.4297,1098.2441,112.4297,1088.2441,116.4297,1092.2441,112.4297" style="stroke:#181818;stroke-width:1.0;"/><line style="stroke:#181818;stroke-width:1.0;" x1="670.7114" x2="1094.2441" y1="112.4297" y2="112.4297"/><text fill="#000000" font-family="sans-serif" font-size="13" lengthAdjust="spacing" textLength="224.0405" x="677.7114" y="107.3638">Инициация создания продукции</text><polygon fill="#181818" points="79.9297,137.5625,69.9297,141.5625,79.9297,145.5625,75.9297,141.5625" style="stroke:#181818;stroke-width:1.0;"/><line style="stroke:#181818;stroke-width:1.0;" x1="73.9297" x2="1099.2441" y1="141.5625" y2="141.5625"/><text fill="#000000" font-family="sans-serif" font-size="13" lengthAdjust="spacing" textLength="215.9155" x="85.9297" y="136.4966">Запрос на создание продукции</text><polygon fill="#181818" points="1088.2441,166.6953,1098.2441,170.6953,1088.2441,174.6953,1092.2441,170.6953" style="stroke:#181818;stroke-width:1.0;"/><line style="stroke:#181818;stroke-width:1.0;" x1="68.9297" x2="1094.2441" y1="170.6953" y2="170.6953"/><text fill="#000000" font-family="sans-serif" font-size="13" lengthAdjust="spacing" textLength="310.7813" x="75.9297" y="165.6294">Запрос необходимых параметров продукции</text><polygon fill="#181818" points="580.2349,195.8281,570.2349,199.8281,580.2349,203.8281,576.2349,199.8281" style="stroke:#181818;stroke-width:1.0;"/><line style="stroke:#181818;stroke-width:1.0;" x1="574.2349" x2="1099.2441" y1="199.8281" y2="199.8281"/><text fill="#000000" font-family="sans-serif" font-size="13" lengthAdjust="spacing" textLength="145.8057" x="586.2349" y="194.7622">Получить параметры</text><polygon fill="#181818" points="1088.2441,224.9609,1098.2441,228.9609,1088.2441,232.9609,1092.2441,228.9609" style="stroke:#181818;stroke-width:1.0;"/><line style="stroke:#181818;stroke-width:1.0;stroke-dasharray:2.0,2.0;" x1="569.2349" x2="1094.2441" y1="228.9609" y2="228.9609"/><text fill="#000000" font-family="sans-serif" font-size="13" lengthAdjust="spacing" textLength="175.6079" x="576.2349" y="223.895">Необходимые параметры</text><polygon fill="#181818" points="79.9297,254.0938,69.9297,258.0938,79.9297,262.0938,75.9297,258.0938" style="stroke:#181818;stroke-width:1.0;"/><line style="stroke:#181818;stroke-width:1.0;stroke-dasharray:2.0,2.0;" x1="73.9297" x2="1099.2441" y1="258.0938" y2="258.0938"/><text fill="#000000" font-family="sans-serif" font-size="13" lengthAdjust="spacing" textLength="154.5781" x="85.9297" y="253.0278">Отправить параметры</text><polygon fill="#181818" points="1088.2441,283.2266,1098.2441,287.2266,1088.2441,291.2266,1092.2441,287.2266" style="stroke:#181818;stroke-width:1.0;"/><line style="stroke:#181818;stroke-width:1.0;" x1="68.9297" x2="1094.2441" y1="287.2266" y2="287.2266"/><text fill="#000000" font-family="sans-serif" font-size="13" lengthAdjust="spacing" textLength="187.9604" x="75.9297" y="282.1606">Создать объект продукции</text><polygon fill="#181818" points="580.2349,312.3594,570.2349,316.3594,580.2349,320.3594,576.2349,316.3594" style="stroke:#181818;stroke-width:1.0;"/><line style="stroke:#181818;stroke-width:1.0;" x1="574.2349" x2="1099.2441" y1="316.3594" y2="316.3594"/><text fill="#000000" font-family="sans-serif" font-size="13" lengthAdjust="spacing" textLength="108.8433" x="586.2349" y="311.2935">Создать объект</text><polygon fill="#181818" points="1088.2441,341.4922,1098.2441,345.4922,1088.2441,349.4922,1092.2441,345.4922" style="stroke:#181818;stroke-width:1.0;"/><line style="stroke:#181818;stroke-width:1.0;stroke-dasharray:2.0,2.0;" x1="569.2349" x2="1094.2441" y1="345.4922" y2="345.4922"/><text fill="#000000" font-family="sans-serif" font-size="13" lengthAdjust="spacing" textLength="258.832" x="576.2349" y="340.4263">Подтверждение создания продукции</text><polygon fill="#181818" points="79.9297,370.625,69.9297,374.625,79.9297,378.625,75.9297,374.625" style="stroke:#181818;stroke-width:1.0;"/><line style="stroke:#181818;stroke-width:1.0;stroke-dasharray:2.0,2.0;" x1="73.9297" x2="1099.2441" y1="374.625" y2="374.625"/><text fill="#000000" font-family="sans-serif" font-size="13" lengthAdjust="spacing" textLength="179.7148" x="85.9297" y="369.5591">Подтверждение создания</text><polygon fill="#181818" points="1088.2441,399.7578,1098.2441,403.7578,1088.2441,407.7578,1092.2441,403.7578" style="stroke:#181818;stroke-width:1.0;"/><line style="stroke:#181818;stroke-width:1.0;" x1="68.9297" x2="1094.2441" y1="403.7578" y2="403.7578"/><text fill="#000000" font-family="sans-serif" font-size="13" lengthAdjust="spacing" textLength="406.9736" x="75.9297" y="398.6919">Нанести маркировку (время, место, ID, данные оператора)</text><polygon fill="#181818" points="580.2349,428.8906,570.2349,432.8906,580.2349,436.8906,576.2349,432.8906" style="stroke:#181818;stroke-width:1.0;"/><line style="stroke:#181818;stroke-width:1.0;" x1="574.2349" x2="1099.2441" y1="432.8906" y2="432.8906"/><text fill="#000000" font-family="sans-serif" font-size="13" lengthAdjust="spacing" textLength="143.2793" x="586.2349" y="427.8247">Нанести маркировку</text><polygon fill="#181818" points="1088.2441,458.0234,1098.2441,462.0234,1088.2441,466.0234,1092.2441,462.0234" style="stroke:#181818;stroke-width:1.0;"/><line style="stroke:#181818;stroke-width:1.0;stroke-dasharray:2.0,2.0;" x1="569.2349" x2="1094.2441" y1="462.0234" y2="462.0234"/><text fill="#000000" font-family="sans-serif" font-size="13" lengthAdjust="spacing" textLength="275.4819" x="576.2349" y="456.9575">Подтверждение нанесения маркировки</text><polygon fill="#181818" points="79.9297,487.1563,69.9297,491.1563,79.9297,495.1563,75.9297,491.1563" style="stroke:#181818;stroke-width:1.0;"/><line style="stroke:#181818;stroke-width:1.0;stroke-dasharray:2.0,2.0;" x1="73.9297" x2="1099.2441" y1="491.1563" y2="491.1563"/><text fill="#000000" font-family="sans-serif" font-size="13" lengthAdjust="spacing" textLength="198.4722" x="85.9297" y="486.0903">Подтверждение маркировки</text><polygon fill="#181818" points="1088.2441,516.2891,1098.2441,520.2891,1088.2441,524.2891,1092.2441,520.2891" style="stroke:#181818;stroke-width:1.0;"/><line style="stroke:#181818;stroke-width:1.0;stroke-dasharray:2.0,2.0;" x1="68.9297" x2="1094.2441" y1="520.2891" y2="520.2891"/><text fill="#000000" font-family="sans-serif" font-size="13" lengthAdjust="spacing" textLength="135.1987" x="75.9297" y="515.2231">Продукция создана</text><polygon fill="#181818" points="681.7114,545.4219,671.7114,549.4219,681.7114,553.4219,677.7114,549.4219" style="stroke:#181818;stroke-width:1.0;"/><line style="stroke:#181818;stroke-width:1.0;stroke-dasharray:2.0,2.0;" x1="675.7114" x2="1099.2441" y1="549.4219" y2="549.4219"/><text fill="#000000" font-family="sans-serif" font-size="13" lengthAdjust="spacing" textLength="334.5659" x="687.7114" y="544.356">Отображение сообщения о создании продукции</text><polygon fill="#181818" points="1088.2441,574.5547,1098.2441,578.5547,1088.2441,582.5547,1092.2441,578.5547" style="stroke:#181818;stroke-width:1.0;"/><line style="stroke:#181818;stroke-width:1.0;" x1="670.7114" x2="1094.2441" y1="578.5547" y2="578.5547"/><text fill="#000000" font-family="sans-serif" font-size="13" lengthAdjust="spacing" textLength="315.0278" x="677.7114" y="573.4888">Инициация передачи продукции на проверку</text><polygon fill="#181818" points="580.2349,603.6875,570.2349,607.6875,580.2349,611.6875,576.2349,607.6875" style="stroke:#181818;stroke-width:1.0;"/><line style="stroke:#181818;stroke-width:1.0;" x1="574.2349" x2="1099.2441" y1="607.6875" y2="607.6875"/><text fill="#000000" font-family="sans-serif" font-size="13" lengthAdjust="spacing" textLength="234.4443" x="586.2349" y="602.6216">Запрос изготовленной продукции</text><polygon fill="#181818" points="1088.2441,632.8203,1098.2441,636.8203,1088.2441,640.8203,1092.2441,636.8203" style="stroke:#181818;stroke-width:1.0;"/><line style="stroke:#181818;stroke-width:1.0;stroke-dasharray:2.0,2.0;" x1="569.2349" x2="1094.2441" y1="636.8203" y2="636.8203"/><text fill="#000000" font-family="sans-serif" font-size="13" lengthAdjust="spacing" textLength="75.6323" x="576.2349" y="631.7544">Продукция</text><polygon fill="#181818" points="171.436,661.9531,161.436,665.9531,171.436,669.9531,167.436,665.9531" style="stroke:#181818;stroke-width:1.0;"/><line style="stroke:#181818;stroke-width:1.0;" x1="165.436" x2="1099.2441" y1="665.9531" y2="665.9531"/><text fill="#000000" font-family="sans-serif" font-size="13" lengthAdjust="spacing" textLength="234.6348" x="177.436" y="660.8872">Передача продукции на проверку</text><polygon fill="#181818" points="1088.2441,691.0859,1098.2441,695.0859,1088.2441,699.0859,1092.2441,695.0859" style="stroke:#181818;stroke-width:1.0;"/><line style="stroke:#181818;stroke-width:1.0;" x1="160.436" x2="1094.2441" y1="695.0859" y2="695.0859"/><text fill="#000000" font-family="sans-serif" font-size="13" lengthAdjust="spacing" textLength="226.2051" x="167.436" y="690.02">Измерить параметры продукции</text><polygon fill="#181818" points="580.2349,720.2188,570.2349,724.2188,580.2349,728.2188,576.2349,724.2188" style="stroke:#181818;stroke-width:1.0;"/><line style="stroke:#181818;stroke-width:1.0;" x1="574.2349" x2="1099.2441" y1="724.2188" y2="724.2188"/><text fill="#000000" font-family="sans-serif" font-size="13" lengthAdjust="spacing" textLength="224.9229" x="586.2349" y="719.1528">Получить параметры продукции</text><polygon fill="#181818" points="1088.2441,749.3516,1098.2441,753.3516,1088.2441,757.3516,1092.2441,753.3516" style="stroke:#181818;stroke-width:1.0;"/><line style="stroke:#181818;stroke-width:1.0;stroke-dasharray:2.0,2.0;" x1="569.2349" x2="1094.2441" y1="753.3516" y2="753.3516"/><text fill="#000000" font-family="sans-serif" font-size="13" lengthAdjust="spacing" textLength="156.9712" x="576.2349" y="748.2856">Параметры продукции</text><polygon fill="#181818" points="171.436,778.4844,161.436,782.4844,171.436,786.4844,167.436,782.4844" style="stroke:#181818;stroke-width:1.0;"/><line style="stroke:#181818;stroke-width:1.0;stroke-dasharray:2.0,2.0;" x1="165.436" x2="1099.2441" y1="782.4844" y2="782.4844"/><text fill="#000000" font-family="sans-serif" font-size="13" lengthAdjust="spacing" textLength="156.9712" x="177.436" y="777.4185">Параметры продукции</text><line style="stroke:#181818;stroke-width:1.0;" x1="160.436" x2="202.436" y1="811.6172" y2="811.6172"/><line style="stroke:#181818;stroke-width:1.0;" x1="202.436" x2="202.436" y1="811.6172" y2="824.6172"/><line style="stroke:#181818;stroke-width:1.0;" x1="160.436" x2="202.436" y1="824.6172" y2="824.6172"/><line style="stroke:#181818;stroke-width:1.0;" x1="161.436" x2="171.436" y1="824.6172" y2="820.6172"/><line style="stroke:#181818;stroke-width:1.0;" x1="161.436" x2="171.436" y1="824.6172" y2="828.6172"/><text fill="#000000" font-family="sans-serif" font-size="13" lengthAdjust="spacing" textLength="226.459" x="167.436" y="806.5513">Сравнить параметры с эталоном</text><line style="stroke:#181818;stroke-width:1.0;" x1="160.436" x2="202.436" y1="853.75" y2="853.75"/><line style="stroke:#181818;stroke-width:1.0;" x1="202.436" x2="202.436" y1="853.75" y2="866.75"/><line style="stroke:#181818;stroke-width:1.0;" x1="160.436" x2="202.436" y1="866.75" y2="866.75"/><line style="stroke:#181818;stroke-width:1.0;" x1="161.436" x2="171.436" y1="866.75" y2="862.75"/><line style="stroke:#181818;stroke-width:1.0;" x1="161.436" x2="171.436" y1="866.75" y2="870.75"/><text fill="#000000" font-family="sans-serif" font-size="13" lengthAdjust="spacing" textLength="394.7988" x="167.436" y="848.6841">Принять решение относительно пригодности продукции</text><path d="M97.8594,881.75 L162.3022,881.75 L162.3022,888.8828 L152.3022,898.8828 L97.8594,898.8828 L97.8594,881.75 " fill="#EEEEEE" style="stroke:#000000;stroke-width:1.5;"/><rect fill="none" height="412.6641" style="stroke:#000000;stroke-width:1.5;" width="1069.7158" x="97.8594" y="881.75"/><text fill="#000000" font-family="sans-serif" font-size="13" font-weight="bold" lengthAdjust="spacing" textLength="19.4429" x="112.8594" y="894.8169">alt</text><text fill="#000000" font-family="sans-serif" font-size="11" font-weight="bold" lengthAdjust="spacing" textLength="253.3545" x="177.3022" y="893.9604">[Продукция соответствует стандартам]</text><polygon fill="#181818" points="1088.2441,916.0156,1098.2441,920.0156,1088.2441,924.0156,1092.2441,920.0156" style="stroke:#181818;stroke-width:1.0;"/><line style="stroke:#181818;stroke-width:1.0;" x1="160.436" x2="1094.2441" y1="920.0156" y2="920.0156"/><text fill="#000000" font-family="sans-serif" font-size="13" lengthAdjust="spacing" textLength="289.5674" x="167.436" y="914.9497">Маркировать продукцию как "пригодная"</text><polygon fill="#181818" points="580.2349,945.1484,570.2349,949.1484,580.2349,953.1484,576.2349,949.1484" style="stroke:#181818;stroke-width:1.0;"/><line style="stroke:#181818;stroke-width:1.0;" x1="574.2349" x2="1099.2441" y1="949.1484" y2="949.1484"/><text fill="#000000" font-family="sans-serif" font-size="13" lengthAdjust="spacing" textLength="194.397" x="586.2349" y="944.0825">Обновить статус продукции</text><polygon fill="#181818" points="1088.2441,974.2813,1098.2441,978.2813,1088.2441,982.2813,1092.2441,978.2813" style="stroke:#181818;stroke-width:1.0;"/><line style="stroke:#181818;stroke-width:1.0;stroke-dasharray:2.0,2.0;" x1="569.2349" x2="1094.2441" y1="978.2813" y2="978.2813"/><text fill="#000000" font-family="sans-serif" font-size="13" lengthAdjust="spacing" textLength="111.8457" x="576.2349" y="973.2153">Подтверждение</text><polygon fill="#181818" points="171.436,1003.4141,161.436,1007.4141,171.436,1011.4141,167.436,1007.4141" style="stroke:#181818;stroke-width:1.0;"/><line style="stroke:#181818;stroke-width:1.0;stroke-dasharray:2.0,2.0;" x1="165.436" x2="1099.2441" y1="1007.4141" y2="1007.4141"/><text fill="#000000" font-family="sans-serif" font-size="13" lengthAdjust="spacing" textLength="198.4722" x="177.436" y="1002.3481">Подтверждение маркировки</text><line style="stroke:#000000;stroke-width:1.0;stroke-dasharray:2.0,2.0;" x1="97.8594" x2="1167.5752" y1="1016.4141" y2="1016.4141"/><text fill="#000000" font-family="sans-serif" font-size="11" font-weight="bold" lengthAdjust="spacing" textLength="272.2446" x="102.8594" y="1026.6245">[Продукция не соответствует стандартам]</text><polygon fill="#181818" points="1088.2441,1047.3516,1098.2441,1051.3516,1088.2441,1055.3516,1092.2441,1051.3516" style="stroke:#181818;stroke-width:1.0;"/><line style="stroke:#181818;stroke-width:1.0;" x1="160.436" x2="1094.2441" y1="1051.3516" y2="1051.3516"/><text fill="#000000" font-family="sans-serif" font-size="13" lengthAdjust="spacing" textLength="306.0649" x="167.436" y="1046.2856">Маркировать продукцию как "непригодная"</text><polygon fill="#181818" points="580.2349,1076.4844,570.2349,1080.4844,580.2349,1084.4844,576.2349,1080.4844" style="stroke:#181818;stroke-width:1.0;"/><line style="stroke:#181818;stroke-width:1.0;" x1="574.2349" x2="1099.2441" y1="1080.4844" y2="1080.4844"/><text fill="#000000" font-family="sans-serif" font-size="13" lengthAdjust="spacing" textLength="194.397" x="586.2349" y="1075.4185">Обновить статус продукции</text><polygon fill="#181818" points="1088.2441,1105.6172,1098.2441,1109.6172,1088.2441,1113.6172,1092.2441,1109.6172" style="stroke:#181818;stroke-width:1.0;"/><line style="stroke:#181818;stroke-width:1.0;stroke-dasharray:2.0,2.0;" x1="569.2349" x2="1094.2441" y1="1109.6172" y2="1109.6172"/><text fill="#000000" font-family="sans-serif" font-size="13" lengthAdjust="spacing" textLength="111.8457" x="576.2349" y="1104.5513">Подтверждение</text><polygon fill="#181818" points="171.436,1134.75,161.436,1138.75,171.436,1142.75,167.436,1138.75" style="stroke:#181818;stroke-width:1.0;"/><line style="stroke:#181818;stroke-width:1.0;stroke-dasharray:2.0,2.0;" x1="165.436" x2="1099.2441" y1="1138.75" y2="1138.75"/><text fill="#000000" font-family="sans-serif" font-size="13" lengthAdjust="spacing" textLength="198.4722" x="177.436" y="1133.6841">Подтверждение маркировки</text><path d="M107.8594,1153.75 L177.3105,1153.75 L177.3105,1160.8828 L167.3105,1170.8828 L107.8594,1170.8828 L107.8594,1153.75 " fill="#EEEEEE" style="stroke:#000000;stroke-width:1.5;"/><rect fill="none" height="133.6641" style="stroke:#000000;stroke-width:1.5;" width="1049.7158" x="107.8594" y="1153.75"/><text fill="#000000" font-family="sans-serif" font-size="13" font-weight="bold" lengthAdjust="spacing" textLength="24.4512" x="122.8594" y="1166.8169">opt</text><polygon fill="#181818" points="1088.2441,1188.0156,1098.2441,1192.0156,1088.2441,1196.0156,1092.2441,1192.0156" style="stroke:#181818;stroke-width:1.0;"/><line style="stroke:#181818;stroke-width:1.0;" x1="160.436" x2="1094.2441" y1="1192.0156" y2="1192.0156"/><text fill="#000000" font-family="sans-serif" font-size="13" lengthAdjust="spacing" textLength="211.2563" x="167.436" y="1186.9497">Сделать замечание оператору</text><polygon fill="#181818" points="580.2349,1217.1484,570.2349,1221.1484,580.2349,1225.1484,576.2349,1221.1484" style="stroke:#181818;stroke-width:1.0;"/><line style="stroke:#181818;stroke-width:1.0;" x1="574.2349" x2="1099.2441" y1="1221.1484" y2="1221.1484"/><text fill="#000000" font-family="sans-serif" font-size="13" lengthAdjust="spacing" textLength="143.0762" x="586.2349" y="1216.0825">Создание замечания</text><polygon fill="#181818" points="1088.2441,1246.2813,1098.2441,1250.2813,1088.2441,1254.2813,1092.2441,1250.2813" style="stroke:#181818;stroke-width:1.0;"/><line style="stroke:#181818;stroke-width:1.0;stroke-dasharray:2.0,2.0;" x1="569.2349" x2="1094.2441" y1="1250.2813" y2="1250.2813"/><text fill="#000000" font-family="sans-serif" font-size="13" lengthAdjust="spacing" textLength="256.9468" x="576.2349" y="1245.2153">Подтверждение создания замечания</text><polygon fill="#181818" points="171.436,1275.4141,161.436,1279.4141,171.436,1283.4141,167.436,1279.4141" style="stroke:#181818;stroke-width:1.0;"/><line style="stroke:#181818;stroke-width:1.0;stroke-dasharray:2.0,2.0;" x1="165.436" x2="1099.2441" y1="1279.4141" y2="1279.4141"/><text fill="#000000" font-family="sans-serif" font-size="13" lengthAdjust="spacing" textLength="189.0776" x="177.436" y="1274.3481">Подтверждение замечания</text><polygon fill="#181818" points="1088.2441,1318.5469,1098.2441,1322.5469,1088.2441,1326.5469,1092.2441,1322.5469" style="stroke:#181818;stroke-width:1.0;"/><line style="stroke:#181818;stroke-width:1.0;stroke-dasharray:2.0,2.0;" x1="160.436" x2="1094.2441" y1="1322.5469" y2="1322.5469"/><text fill="#000000" font-family="sans-serif" font-size="13" lengthAdjust="spacing" textLength="893.4897" x="167.436" y="1317.481">Результаты проверки (исходные и фактические параметры продукции, решение о пригодности продукции, наличие замечаний)</text><polygon fill="#181818" points="681.7114,1347.6797,671.7114,1351.6797,681.7114,1355.6797,677.7114,1351.6797" style="stroke:#181818;stroke-width:1.0;"/><line style="stroke:#181818;stroke-width:1.0;stroke-dasharray:2.0,2.0;" x1="675.7114" x2="1099.2441" y1="1351.6797" y2="1351.6797"/><text fill="#000000" font-family="sans-serif" font-size="13" lengthAdjust="spacing" textLength="233.9746" x="687.7114" y="1346.6138">Отобразить результаты проверки</text><path d="M10,1366.6797 L79.4512,1366.6797 L79.4512,1373.8125 L69.4512,1383.8125 L10,1383.8125 L10,1366.6797 " fill="#EEEEEE" style="stroke:#000000;stroke-width:1.5;"/><rect fill="none" height="441.7969" style="stroke:#000000;stroke-width:1.5;" width="1157.5752" x="10" y="1366.6797"/><text fill="#000000" font-family="sans-serif" font-size="13" font-weight="bold" lengthAdjust="spacing" textLength="24.4512" x="25" y="1379.7466">opt</text><polygon fill="#181818" points="1088.2441,1400.9453,1098.2441,1404.9453,1088.2441,1408.9453,1092.2441,1404.9453" style="stroke:#181818;stroke-width:1.0;"/><line style="stroke:#181818;stroke-width:1.0;" x1="670.7114" x2="1094.2441" y1="1404.9453" y2="1404.9453"/><text fill="#000000" font-family="sans-serif" font-size="13" lengthAdjust="spacing" textLength="226.1353" x="677.7114" y="1399.8794">Инициация передачи продукции</text><polygon fill="#181818" points="580.2349,1430.0781,570.2349,1434.0781,580.2349,1438.0781,576.2349,1434.0781" style="stroke:#181818;stroke-width:1.0;"/><line style="stroke:#181818;stroke-width:1.0;" x1="574.2349" x2="1099.2441" y1="1434.0781" y2="1434.0781"/><text fill="#000000" font-family="sans-serif" font-size="13" lengthAdjust="spacing" textLength="234.4443" x="586.2349" y="1429.0122">Запрос изготовленной продукции</text><polygon fill="#181818" points="1088.2441,1459.2109,1098.2441,1463.2109,1088.2441,1467.2109,1092.2441,1463.2109" style="stroke:#181818;stroke-width:1.0;"/><line style="stroke:#181818;stroke-width:1.0;stroke-dasharray:2.0,2.0;" x1="569.2349" x2="1094.2441" y1="1463.2109" y2="1463.2109"/><text fill="#000000" font-family="sans-serif" font-size="13" lengthAdjust="spacing" textLength="75.6323" x="576.2349" y="1458.145">Продукция</text><path d="M20,1478.2109 L84.4429,1478.2109 L84.4429,1485.3438 L74.4429,1495.3438 L20,1495.3438 L20,1478.2109 " fill="#EEEEEE" style="stroke:#000000;stroke-width:1.5;"/><rect fill="none" height="323.2656" style="stroke:#000000;stroke-width:1.5;" width="1137.5752" x="20" y="1478.2109"/><text fill="#000000" font-family="sans-serif" font-size="13" font-weight="bold" lengthAdjust="spacing" textLength="19.4429" x="35" y="1491.2778">alt</text><text fill="#000000" font-family="sans-serif" font-size="11" font-weight="bold" lengthAdjust="spacing" textLength="336.0317" x="99.4429" y="1490.4214">[Принято решение передать продукцию оператору]</text><polygon fill="#181818" points="79.9297,1512.4766,69.9297,1516.4766,79.9297,1520.4766,75.9297,1516.4766" style="stroke:#181818;stroke-width:1.0;"/><line style="stroke:#181818;stroke-width:1.0;" x1="73.9297" x2="1099.2441" y1="1516.4766" y2="1516.4766"/><text fill="#000000" font-family="sans-serif" font-size="13" lengthAdjust="spacing" textLength="302.2563" x="85.9297" y="1511.4106">Передача продукции на дальнейшие этапы</text><polygon fill="#181818" points="1088.2441,1541.6094,1098.2441,1545.6094,1088.2441,1549.6094,1092.2441,1545.6094" style="stroke:#181818;stroke-width:1.0;"/><line style="stroke:#181818;stroke-width:1.0;stroke-dasharray:2.0,2.0;" x1="68.9297" x2="1094.2441" y1="1545.6094" y2="1545.6094"/><text fill="#000000" font-family="sans-serif" font-size="13" lengthAdjust="spacing" textLength="181.8096" x="75.9297" y="1540.5435">Подтверждение передачи</text><polygon fill="#181818" points="580.2349,1570.7422,570.2349,1574.7422,580.2349,1578.7422,576.2349,1574.7422" style="stroke:#181818;stroke-width:1.0;"/><line style="stroke:#181818;stroke-width:1.0;" x1="574.2349" x2="1099.2441" y1="1574.7422" y2="1574.7422"/><text fill="#000000" font-family="sans-serif" font-size="13" lengthAdjust="spacing" textLength="185.2437" x="586.2349" y="1569.6763">Обновить статус передачи</text><polygon fill="#181818" points="1088.2441,1599.875,1098.2441,1603.875,1088.2441,1607.875,1092.2441,1603.875" style="stroke:#181818;stroke-width:1.0;"/><line style="stroke:#181818;stroke-width:1.0;stroke-dasharray:2.0,2.0;" x1="569.2349" x2="1094.2441" y1="1603.875" y2="1603.875"/><text fill="#000000" font-family="sans-serif" font-size="13" lengthAdjust="spacing" textLength="181.8096" x="576.2349" y="1598.8091">Подтверждение передачи</text><polygon fill="#181818" points="681.7114,1629.0078,671.7114,1633.0078,681.7114,1637.0078,677.7114,1633.0078" style="stroke:#181818;stroke-width:1.0;"/><line style="stroke:#181818;stroke-width:1.0;stroke-dasharray:2.0,2.0;" x1="675.7114" x2="1099.2441" y1="1633.0078" y2="1633.0078"/><text fill="#000000" font-family="sans-serif" font-size="13" lengthAdjust="spacing" textLength="397.7568" x="687.7114" y="1627.9419">Обновить отображение (продукция передана оператору)</text><line style="stroke:#000000;stroke-width:1.0;stroke-dasharray:2.0,2.0;" x1="20" x2="1157.5752" y1="1642.0078" y2="1642.0078"/><text fill="#000000" font-family="sans-serif" font-size="11" font-weight="bold" lengthAdjust="spacing" textLength="399.6953" x="25" y="1652.2183">[Принято решение передать продукцию другому инспектору]</text><polygon fill="#181818" points="171.436,1672.9453,161.436,1676.9453,171.436,1680.9453,167.436,1676.9453" style="stroke:#181818;stroke-width:1.0;"/><line style="stroke:#181818;stroke-width:1.0;" x1="165.436" x2="1099.2441" y1="1676.9453" y2="1676.9453"/><text fill="#000000" font-family="sans-serif" font-size="13" lengthAdjust="spacing" textLength="302.2563" x="177.436" y="1671.8794">Передача продукции на дальнейшие этапы</text><polygon fill="#181818" points="1088.2441,1702.0781,1098.2441,1706.0781,1088.2441,1710.0781,1092.2441,1706.0781" style="stroke:#181818;stroke-width:1.0;"/><line style="stroke:#181818;stroke-width:1.0;stroke-dasharray:2.0,2.0;" x1="160.436" x2="1094.2441" y1="1706.0781" y2="1706.0781"/><text fill="#000000" font-family="sans-serif" font-size="13" lengthAdjust="spacing" textLength="181.8096" x="167.436" y="1701.0122">Подтверждение передачи</text><polygon fill="#181818" points="580.2349,1731.2109,570.2349,1735.2109,580.2349,1739.2109,576.2349,1735.2109" style="stroke:#181818;stroke-width:1.0;"/><line style="stroke:#181818;stroke-width:1.0;" x1="574.2349" x2="1099.2441" y1="1735.2109" y2="1735.2109"/><text fill="#000000" font-family="sans-serif" font-size="13" lengthAdjust="spacing" textLength="185.2437" x="586.2349" y="1730.145">Обновить статус передачи</text><polygon fill="#181818" points="1088.2441,1760.3438,1098.2441,1764.3438,1088.2441,1768.3438,1092.2441,1764.3438" style="stroke:#181818;stroke-width:1.0;"/><line style="stroke:#181818;stroke-width:1.0;stroke-dasharray:2.0,2.0;" x1="569.2349" x2="1094.2441" y1="1764.3438" y2="1764.3438"/><text fill="#000000" font-family="sans-serif" font-size="13" lengthAdjust="spacing" textLength="181.8096" x="576.2349" y="1759.2778">Подтверждение передачи</text><polygon fill="#181818" points="681.7114,1789.4766,671.7114,1793.4766,681.7114,1797.4766,677.7114,1793.4766" style="stroke:#181818;stroke-width:1.0;"/><line style="stroke:#181818;stroke-width:1.0;stroke-dasharray:2.0,2.0;" x1="675.7114" x2="1099.2441" y1="1793.4766" y2="1793.4766"/><text fill="#000000" font-family="sans-serif" font-size="13" lengthAdjust="spacing" textLength="405.5327" x="687.7114" y="1788.4106">Обновить отображение (продукция передана инспектору)</text><!--SRC=[xLVBRjD05DtxAqPTDLBw0opOm8O5M_PfwqMbA45f46AN1wL02rc2K1_q3zmGDyx3pY_C_17ttXatyJpgCUa22IgbSUoPC_UUU-RCTUEWs-umViLNF1Oz7ea1pqGlQCZRttag-lY8pzM3iDKzwhvZE_o2Ptm23nRYV8SrZjdBzc7O3FRRRrg7ZGuEk0Quc4z47sP6VCmNy2lb2Ozf-AkZy6rmq6vrE-qc3Fu1QAaOm9GC1Yum5XhsJ8veXfqWm2bix-d6lISK8K_41y2DyByOCGWuurE8BQ978yPN13iHGyW2HoR16W81zUm1zXlCfccYpm0cqb1vR4FLSOnWDTGOvj-A4o8ouKjn9au05cO30by2akHZN9u1aGyBN2DzOYXE8V61E3VGn5b0GzcU7jgb6GqbQSpVNDZEtHLShMZMs1r6ELatEU4I0eFxB8NepuSRmyN3DU4E87ICxOuaBWjULLTsSlpnFIYwfB4nRR640Rl8yXmcasmWgY7RvMFQXqingZFY7mTdTVRYEVoMYwMorbbnDHxL7AoMBrkTNTna4bJUGduDu2qPjW9QM3QYBjPPzvX83mgDIkq3L1mA_wvOPhpzQPrefjjBOXENhm6gT6BI_QaLItgQkY-9mghPorrmhGIY_0MN0veeFJs5wvajOfSAT3vrFpQE7IhhPbAHVrA12MSXSKfxe-SqhCVqu2fKLOt3JPy7a9qg1-ADilZKdIS8HdoXut-1vpjybfMMGA4aS7z42s3vnSVrRaOHfgXA341s8lXR9fQWIa4iD43wb2NVHhFhtDwPyf01pH_3OxXcgfr9IOSzkbu63FuyL7QXsOywbRIun5S6Oo8-XxQec4aaHZkqbbruL_oMECvFNHagN0vnuvhP8r9LdpQMT-kjaWk7pUFGLWay4lwUSc3Bzi-K167RhxlqxSdeZNmZo9cSAZCuNJVDMey1zfp3bpHmEO262MT73l083PqRV4j-xS1Xwp30ZzKJzJn-miCfI0LSJcdeJ3lhmEDs0RklUdZLrILCl4VveWV2-jXWpTKBZCUHK3TTrzzVwxAhMz32DXxuhERHEqtppTFpe208WboqZzSkFR33_xmvUaYpHeD4e-zFAtKcOj-eLMSp5vUR-Uv1Qs_jsOJXffBdSSnd423jDzaAhE3jxzvJodjlzwRIwbRY92LMxC2g_XxZ4zM6phMeb7ZqbuPTeuv5tKhIZSBMfCtSdwtRwMQ2aBJjb_1YIM05pt8BQQj-tbTA7XxwNqp-OhAKjxPvQlq6]--></g></svg>