<svg xmlns="http://www.w3.org/2000/svg" xmlns:xlink="http://www.w3.org/1999/xlink" contentStyleType="text/css" data-diagram-type="STATE" height="1614px" preserveAspectRatio="none" style="width:1070px;height:1614px;background:#FFFFFF;" version="1.1" viewBox="0 0 1070 1614" width="1070px" zoomAndPan="magnify"><defs/><g><g id="elem_c1"><polygon fill="#F1F1F1" points="753.9,87,765.9,99,753.9,111,741.9,99,753.9,87" style="stroke:#181818;stroke-width:0.5;"/></g><g id="FetchingStandard"><rect fill="#F1F1F1" height="78.2031" rx="12.5" ry="12.5" style="stroke:#181818;stroke-width:0.5;" width="235.2441" x="500.28" y="188"/><line style="stroke:#181818;stroke-width:0.5;" x1="500.28" x2="735.5241" y1="214.2969" y2="214.2969"/><text fill="#000000" font-family="sans-serif" font-size="14" lengthAdjust="spacing" textLength="124.3115" x="555.7463" y="205.9951">FetchingStandard</text><text fill="#000000" font-family="sans-serif" font-size="12" lengthAdjust="spacing" textLength="215.2441" x="505.28" y="230.4355">entry / Operator::requestStandard()</text><text fill="#000000" font-family="sans-serif" font-size="12" lengthAdjust="spacing" textLength="203.2969" x="505.28" y="244.4043">do / Database::retrieveStandard()</text><text fill="#000000" font-family="sans-serif" font-size="12" lengthAdjust="spacing" textLength="186.2813" x="505.28" y="258.373">exit / log("Standard retrieved")</text></g><g id="DecidingParameters"><rect fill="#F1F1F1" height="78.2031" rx="12.5" ry="12.5" style="stroke:#181818;stroke-width:0.5;" width="243.7168" x="302.04" y="343.2"/><line style="stroke:#181818;stroke-width:0.5;" x1="302.04" x2="545.7568" y1="369.4969" y2="369.4969"/><text fill="#000000" font-family="sans-serif" font-size="14" lengthAdjust="spacing" textLength="142.2764" x="352.7602" y="361.1951">DecidingParameters</text><text fill="#000000" font-family="sans-serif" font-size="12" lengthAdjust="spacing" textLength="223.7168" x="307.04" y="385.6355">entry / Operator::decideParameters()</text><text fill="#000000" font-family="sans-serif" font-size="12" lengthAdjust="spacing" textLength="196.3125" x="307.04" y="399.6043">do / Operator::evaluateOptions()</text><text fill="#000000" font-family="sans-serif" font-size="12" lengthAdjust="spacing" textLength="193.4766" x="307.04" y="413.573">exit / log("Parameters decided")</text></g><g id="CreatingProduct"><rect fill="#F1F1F1" height="78.2031" rx="12.5" ry="12.5" style="stroke:#181818;stroke-width:0.5;" width="251.3926" x="255.2" y="498.41"/><line style="stroke:#181818;stroke-width:0.5;" x1="255.2" x2="506.5926" y1="524.7069" y2="524.7069"/><text fill="#000000" font-family="sans-serif" font-size="14" lengthAdjust="spacing" textLength="113.5723" x="324.1102" y="516.4051">CreatingProduct</text><text fill="#000000" font-family="sans-serif" font-size="12" lengthAdjust="spacing" textLength="198.9551" x="260.2" y="540.8455">entry / Operator::createProduct()</text><text fill="#000000" font-family="sans-serif" font-size="12" lengthAdjust="spacing" textLength="231.3926" x="260.2" y="554.8143">do / Operator::setProductParameters()</text><text fill="#000000" font-family="sans-serif" font-size="12" lengthAdjust="spacing" textLength="168.7148" x="260.2" y="568.783">exit / log("Product created")</text></g><g id="WaitingForInspection"><rect fill="#F1F1F1" height="78.2031" rx="12.5" ry="12.5" style="stroke:#181818;stroke-width:0.5;" width="234.9219" x="252.44" y="653.61"/><line style="stroke:#181818;stroke-width:0.5;" x1="252.44" x2="487.3619" y1="679.9069" y2="679.9069"/><text fill="#000000" font-family="sans-serif" font-size="14" lengthAdjust="spacing" textLength="148.1348" x="295.8336" y="671.6051">WaitingForInspection</text><text fill="#000000" font-family="sans-serif" font-size="12" lengthAdjust="spacing" textLength="214.9219" x="257.44" y="696.0455">entry / Operator::waitForInspector()</text><text fill="#000000" font-family="sans-serif" font-size="12" lengthAdjust="spacing" textLength="191.0391" x="257.44" y="710.0143">do / log("Waiting for inspector")</text><text fill="#000000" font-family="sans-serif" font-size="12" lengthAdjust="spacing" textLength="175.3359" x="257.44" y="723.983">exit / log("Inspector arrived")</text></g><g id="FetchingInspectionStandard"><rect fill="#F1F1F1" height="78.2031" rx="12.5" ry="12.5" style="stroke:#181818;stroke-width:0.5;" width="270.7109" x="231.54" y="808.81"/><line style="stroke:#181818;stroke-width:0.5;" x1="231.54" x2="502.2509" y1="835.1069" y2="835.1069"/><text fill="#000000" font-family="sans-serif" font-size="14" lengthAdjust="spacing" textLength="196.6221" x="268.5844" y="826.8051">FetchingInspectionStandard</text><text fill="#000000" font-family="sans-serif" font-size="12" lengthAdjust="spacing" textLength="217.5059" x="236.54" y="851.2455">entry / Inspector::requestStandard()</text><text fill="#000000" font-family="sans-serif" font-size="12" lengthAdjust="spacing" textLength="203.2969" x="236.54" y="865.2143">do / Database::retrieveStandard()</text><text fill="#000000" font-family="sans-serif" font-size="12" lengthAdjust="spacing" textLength="250.7109" x="236.54" y="879.183">exit / log("Inspection standard retrieved")</text></g><g id="PerformingMeasurement"><rect fill="#F1F1F1" height="78.2031" rx="12.5" ry="12.5" style="stroke:#181818;stroke-width:0.5;" width="267.5938" x="39.1" y="964.02"/><line style="stroke:#181818;stroke-width:0.5;" x1="39.1" x2="306.6938" y1="990.3169" y2="990.3169"/><text fill="#000000" font-family="sans-serif" font-size="14" lengthAdjust="spacing" textLength="173.7695" x="86.0121" y="982.0151">PerformingMeasurement</text><text fill="#000000" font-family="sans-serif" font-size="12" lengthAdjust="spacing" textLength="247.5938" x="44.1" y="1006.4555">entry / Inspector::performMeasurement()</text><text fill="#000000" font-family="sans-serif" font-size="12" lengthAdjust="spacing" textLength="235.2832" x="44.1" y="1020.4243">do / Inspector::compareWithStandard()</text><text fill="#000000" font-family="sans-serif" font-size="12" lengthAdjust="spacing" textLength="222.4746" x="44.1" y="1034.393">exit / log("Measurement performed")</text></g><g id="ComparingWithStandard"><rect fill="#F1F1F1" height="78.2031" rx="12.5" ry="12.5" style="stroke:#181818;stroke-width:0.5;" width="289.8008" x="7" y="1119.22"/><line style="stroke:#181818;stroke-width:0.5;" x1="7" x2="296.8008" y1="1145.5169" y2="1145.5169"/><text fill="#000000" font-family="sans-serif" font-size="14" lengthAdjust="spacing" textLength="172.8809" x="65.46" y="1137.2151">ComparingWithStandard</text><text fill="#000000" font-family="sans-serif" font-size="12" lengthAdjust="spacing" textLength="252.0527" x="12" y="1161.6555">entry / Inspector::compareWithStandard()</text><text fill="#000000" font-family="sans-serif" font-size="12" lengthAdjust="spacing" textLength="177.0176" x="12" y="1175.6243">do / Inspector::markProduct()</text><text fill="#000000" font-family="sans-serif" font-size="12" lengthAdjust="spacing" textLength="269.8008" x="12" y="1189.593">exit / log("Product compared with standard")</text></g><g id="CreatingReport"><rect fill="#F1F1F1" height="78.2031" rx="12.5" ry="12.5" style="stroke:#181818;stroke-width:0.5;" width="215.498" x="85.15" y="1274.42"/><line style="stroke:#181818;stroke-width:0.5;" x1="85.15" x2="300.648" y1="1300.7169" y2="1300.7169"/><text fill="#000000" font-family="sans-serif" font-size="14" lengthAdjust="spacing" textLength="106.9004" x="139.4488" y="1292.4151">CreatingReport</text><text fill="#000000" font-family="sans-serif" font-size="12" lengthAdjust="spacing" textLength="195.498" x="90.15" y="1316.8555">entry / Inspector::createReport()</text><text fill="#000000" font-family="sans-serif" font-size="12" lengthAdjust="spacing" textLength="183.2402" x="90.15" y="1330.8243">do / Inspector::finalizeReport()</text><text fill="#000000" font-family="sans-serif" font-size="12" lengthAdjust="spacing" textLength="162.9961" x="90.15" y="1344.793">exit / log("Report created")</text></g><g id="elem_c2"><polygon fill="#F1F1F1" points="401.9,1429.63,413.9,1441.63,401.9,1453.63,389.9,1441.63,401.9,1429.63" style="stroke:#181818;stroke-width:0.5;"/></g><g id="MakingRemark"><rect fill="#F1F1F1" height="78.2031" rx="12.5" ry="12.5" style="stroke:#181818;stroke-width:0.5;" width="216.8457" x="296.48" y="1530.63"/><line style="stroke:#181818;stroke-width:0.5;" x1="296.48" x2="513.3257" y1="1556.9269" y2="1556.9269"/><text fill="#000000" font-family="sans-serif" font-size="14" lengthAdjust="spacing" textLength="104.8359" x="352.4849" y="1548.6251">MakingRemark</text><text fill="#000000" font-family="sans-serif" font-size="12" lengthAdjust="spacing" textLength="196.8457" x="301.48" y="1573.0655">entry / Inspector::makeRemark()</text><text fill="#000000" font-family="sans-serif" font-size="12" lengthAdjust="spacing" textLength="188.0801" x="301.48" y="1587.0343">do / Inspector::notifyOperator()</text><text fill="#000000" font-family="sans-serif" font-size="12" lengthAdjust="spacing" textLength="157.3945" x="301.48" y="1601.003">exit / log("Remark made")</text></g><ellipse cx="753.9" cy="16" fill="#222222" rx="10" ry="10" style="stroke:#222222;stroke-width:1;"/><ellipse cx="655.9" cy="1569.73" fill="none" rx="11" ry="11" style="stroke:#222222;stroke-width:1;"/><ellipse cx="655.9" cy="1569.73" fill="#222222" rx="6" ry="6" style="stroke:#222222;stroke-width:1;"/><!--link *start* to c1--><g id="link_*start*_c1"><path d="M753.9,26.29 C753.9,41.17 753.9,64.3 753.9,80.48 " fill="none" id="*start*-to-c1" style="stroke:#181818;stroke-width:1;"/><polygon fill="#181818" points="753.9,86.48,757.9,77.48,753.9,81.48,749.9,77.48,753.9,86.48" style="stroke:#181818;stroke-width:1;"/></g><!--link c1 to FetchingStandard--><g id="link_c1_FetchingStandard"><path d="M744.39,102.02 C726.27,106.3 686.45,117.84 661.9,141 C648.35,153.79 640.6635,166.1812 633.5635,182.2612 " fill="none" id="c1-to-FetchingStandard" style="stroke:#181818;stroke-width:1;"/><polygon fill="#181818" points="631.14,187.75,638.4345,181.1325,633.1596,183.176,631.1161,177.9012,631.14,187.75" style="stroke:#181818;stroke-width:1;"/><text fill="#000000" font-family="sans-serif" font-size="13" lengthAdjust="spacing" textLength="200.0972" x="662.9" y="154.0669">decision == "start production"</text></g><!--link c1 to *end*--><g id="link_c1_*end*"><path d="M764.83,100.65 C787.52,102.61 839.98,110.38 867.9,141 C894.22,169.87 889.9,187.04 889.9,226.1 C889.9,226.1 889.9,226.1 889.9,1442.63 C889.9,1545.08 719.9142,1564.2347 673.1742,1567.6347 " fill="none" id="c1-to-*end*" style="stroke:#181818;stroke-width:1;"/><polygon fill="#181818" points="667.19,1568.07,676.4565,1571.4065,672.1768,1567.7072,675.8761,1563.4276,667.19,1568.07" style="stroke:#181818;stroke-width:1;"/><text fill="#000000" font-family="sans-serif" font-size="13" lengthAdjust="spacing" textLength="171.2153" x="890.9" y="852.4869">decision == "end system"</text></g><!--link FetchingStandard to DecidingParameters--><g id="link_FetchingStandard_DecidingParameters"><path d="M521.59,266.69 C506.4,275.13 491.56,284.96 478.9,296.2 C464.3,309.17 455.027,321.6979 445.807,337.6179 " fill="none" id="FetchingStandard-to-DecidingParameters" style="stroke:#181818;stroke-width:1;"/><polygon fill="#181818" points="442.8,342.81,450.7719,337.0265,445.3058,338.4832,443.8491,333.0172,442.8,342.81" style="stroke:#181818;stroke-width:1;"/><text fill="#000000" font-family="sans-serif" font-size="13" lengthAdjust="spacing" textLength="111.3315" x="479.9" y="309.2669">standard fetched</text></g><!--link DecidingParameters to CreatingProduct--><g id="link_DecidingParameters_CreatingProduct"><path d="M413.16,421.57 C406.62,444.88 399.9115,468.7933 393.3515,492.1633 " fill="none" id="DecidingParameters-to-CreatingProduct" style="stroke:#181818;stroke-width:1;"/><polygon fill="#181818" points="391.73,497.94,398.0135,490.3559,393.0813,493.1261,390.3112,488.1939,391.73,497.94" style="stroke:#181818;stroke-width:1;"/><text fill="#000000" font-family="sans-serif" font-size="13" lengthAdjust="spacing" textLength="131.0474" x="404.9" y="464.4769">parameters decided</text></g><!--link CreatingProduct to WaitingForInspection--><g id="link_CreatingProduct_WaitingForInspection"><path d="M378.15,576.77 C376.48,600.08 374.7802,623.7854 373.1002,647.1554 " fill="none" id="CreatingProduct-to-WaitingForInspection" style="stroke:#181818;stroke-width:1;"/><polygon fill="#181818" points="372.67,653.14,377.305,644.45,373.0285,648.1529,369.3256,643.8764,372.67,653.14" style="stroke:#181818;stroke-width:1;"/><text fill="#000000" font-family="sans-serif" font-size="13" lengthAdjust="spacing" textLength="104.2222" x="376.9" y="619.6769">product created</text></g><!--link WaitingForInspection to FetchingInspectionStandard--><g id="link_WaitingForInspection_FetchingInspectionStandard"><path d="M369.15,731.98 C368.69,755.29 368.2256,778.9811 367.7756,802.3411 " fill="none" id="WaitingForInspection-to-FetchingInspectionStandard" style="stroke:#181818;stroke-width:1;"/><polygon fill="#181818" points="367.66,808.34,371.8326,799.4187,367.7563,803.3409,363.8341,799.2646,367.66,808.34" style="stroke:#181818;stroke-width:1;"/><text fill="#000000" font-family="sans-serif" font-size="13" lengthAdjust="spacing" textLength="130.3174" x="369.9" y="774.8769">ready for inspection</text></g><!--link FetchingInspectionStandard to PerformingMeasurement--><g id="link_FetchingInspectionStandard_PerformingMeasurement"><path d="M270.59,887.5 C255.4,895.94 240.56,905.77 227.9,917.02 C213.3,929.99 204.0284,942.5187 194.8084,958.4287 " fill="none" id="FetchingInspectionStandard-to-PerformingMeasurement" style="stroke:#181818;stroke-width:1;"/><polygon fill="#181818" points="191.8,963.62,199.7735,957.8387,194.307,959.2939,192.8517,953.8275,191.8,963.62" style="stroke:#181818;stroke-width:1;"/><text fill="#000000" font-family="sans-serif" font-size="13" lengthAdjust="spacing" textLength="111.3315" x="228.9" y="930.0869">standard fetched</text></g><!--link PerformingMeasurement to ComparingWithStandard--><g id="link_PerformingMeasurement_ComparingWithStandard"><path d="M167.66,1042.38 C164.46,1065.69 161.204,1089.4355 158.004,1112.8055 " fill="none" id="PerformingMeasurement-to-ComparingWithStandard" style="stroke:#181818;stroke-width:1;"/><polygon fill="#181818" points="157.19,1118.75,162.374,1110.3759,157.8683,1113.7962,154.4479,1109.2906,157.19,1118.75" style="stroke:#181818;stroke-width:1;"/><text fill="#000000" font-family="sans-serif" font-size="13" lengthAdjust="spacing" textLength="127.5562" x="164.9" y="1085.2869">measurement done</text></g><!--link ComparingWithStandard to CreatingReport--><g id="link_ComparingWithStandard_CreatingReport"><path d="M162.14,1197.59 C168.38,1220.9 174.7669,1244.7945 181.0269,1268.1545 " fill="none" id="ComparingWithStandard-to-CreatingReport" style="stroke:#181818;stroke-width:1;"/><polygon fill="#181818" points="182.58,1273.95,184.1141,1264.2213,181.2858,1269.1204,176.3867,1266.2921,182.58,1273.95" style="stroke:#181818;stroke-width:1;"/><text fill="#000000" font-family="sans-serif" font-size="13" lengthAdjust="spacing" textLength="112.4805" x="174.9" y="1240.4869">comparison done</text></g><!--link CreatingReport to c2--><g id="link_CreatingReport_c2"><path d="M216.83,1352.92 C228.84,1369.4 244.71,1387.59 262.9,1399.63 C305.07,1427.54 360.7471,1436.2242 385.2871,1438.9642 " fill="none" id="CreatingReport-to-c2" style="stroke:#181818;stroke-width:1;"/><polygon fill="#181818" points="391.25,1439.63,382.7494,1434.656,386.2809,1439.0752,381.8617,1442.6066,391.25,1439.63" style="stroke:#181818;stroke-width:1;"/><text fill="#000000" font-family="sans-serif" font-size="13" lengthAdjust="spacing" textLength="76.5654" x="263.9" y="1395.6969">report done</text></g><!--link c2 to MakingRemark--><g id="link_c2_MakingRemark"><path d="M391,1443.22 C353.82,1445.49 233.05,1455.01 209.9,1483.63 C178.25,1522.75 229.6278,1543.2075 290.1378,1554.8375 " fill="none" id="c2-to-MakingRemark" style="stroke:#181818;stroke-width:1;"/><polygon fill="#181818" points="296.03,1555.97,287.9467,1550.3432,291.1199,1555.0263,286.4368,1558.1994,296.03,1555.97" style="stroke:#181818;stroke-width:1;"/><text fill="#000000" font-family="sans-serif" font-size="13" lengthAdjust="spacing" textLength="182.73" x="210.9" y="1496.6969">decision == "make remark"</text></g><!--link MakingRemark to c2--><g id="link_MakingRemark_c2"><path d="M403.99,1530.29 C403.36,1503.95 402.7111,1476.8183 402.3111,1459.8183 " fill="none" id="MakingRemark-to-c2" style="stroke:#181818;stroke-width:1;"/><polygon fill="#181818" points="402.17,1453.82,398.3828,1462.9116,402.2876,1458.8186,406.3806,1462.7234,402.17,1453.82" style="stroke:#181818;stroke-width:1;"/><text fill="#000000" font-family="sans-serif" font-size="13" lengthAdjust="spacing" textLength="83.4209" x="404.9" y="1496.6969">remark done</text></g><!--link c2 to FetchingStandard--><g id="link_c2_FetchingStandard"><path d="M412.32,1439.65 C455.47,1434.96 617.9,1410.92 617.9,1314.53 C617.9,381.31 617.9,381.31 617.9,381.31 C617.9,342.21 617.9,303.5 617.9,272.51 " fill="none" id="c2-to-FetchingStandard" style="stroke:#181818;stroke-width:1;"/><polygon fill="#181818" points="617.9,266.51,613.9,275.51,617.9,271.51,621.9,275.51,617.9,266.51" style="stroke:#181818;stroke-width:1;"/><text fill="#000000" font-family="sans-serif" font-size="13" lengthAdjust="spacing" textLength="200.0972" x="618.9" y="852.4869">decision == "start production"</text></g><!--link c2 to FetchingInspectionStandard--><g id="link_c2_FetchingInspectionStandard"><path d="M398.15,1432.87 C389.13,1413.43 366.9,1360.87 366.9,1314.53 C366.9,1002.12 366.9,1002.12 366.9,1002.12 C366.9,963.02 366.9,924.31 366.9,893.32 " fill="none" id="c2-to-FetchingInspectionStandard" style="stroke:#181818;stroke-width:1;"/><polygon fill="#181818" points="366.9,887.32,362.9,896.32,366.9,892.32,370.9,896.32,366.9,887.32" style="stroke:#181818;stroke-width:1;"/><text fill="#000000" font-family="sans-serif" font-size="13" lengthAdjust="spacing" textLength="196.9297" x="367.9" y="1162.8869">decision == "start inspection"</text></g><!--link c2 to *end*--><g id="link_c2_*end*"><path d="M410.14,1445.91 C426.74,1452.59 465.35,1468.41 496.9,1483.63 C554.99,1511.65 617.3376,1546.7083 641.5076,1560.4883 " fill="none" id="c2-to-*end*" style="stroke:#181818;stroke-width:1;"/><polygon fill="#181818" points="646.72,1563.46,640.8826,1555.5275,642.3764,1560.9836,636.9203,1562.4773,646.72,1563.46" style="stroke:#181818;stroke-width:1;"/><text fill="#000000" font-family="sans-serif" font-size="13" lengthAdjust="spacing" textLength="171.2153" x="528.9" y="1496.6969">decision == "end system"</text></g><!--SRC=[dLOzRzim4DtrAmXDQO6Wg4SZyT8WG8SWGJja23gmuZacR8agIITrY_xttb5V57MIqsunxxrtkdVI2v_UVnENbnjHVCmovwK7_4jSNHKxemlOR3ByHULRyCLELyzVlQoKj4giXO92EsqgSNqjSgHQBsfhrB7mU9Xtn2VKJx1GAU5EpaEPTpqdyhypmVM4ojkJ-23kQx3I6xjUM_Xn1ESxpCKxdgWCicwabz-b0s9vg-45pj7Wf_P8F9ZdYxm_xiWg9nP7fC5lS6I5Xm_IoX8yM8TwhaDiYG8g-zCvmC390rPbwWBvgs00XNbORZ1Y8CABF1on_trDMrlWnKv4XQPnxmH39Iy-MP2UZflt0-NgYSHWHOec7wOAKnCAma2B29DCMSdu3dnRIxnZ-iK6jATDntxwb4IZFqfDHxV6VgvS3U7ZeFd72iFmB9uSc16Qsl2Am05bR9XdXXti22Er0B4rLkYEcYzGOp_wNa9QgwClW-N6UJ8SHryTUg9EyPDWUN1eWHgd1glSkTK_y7A0i1h_4YNyGqoT8rlSsNnXrCZB1x3eLOc0Ev3kQA74CHV3XcUGUtDQZ75r0urmOVGvXM1RH2zCYI40ZzhlHjRDFa7aMbnf7sDmYnS8CHHQOY5kYj9bX5EcWYYAM4O8f1ajngYvIUSaKgTAQVUZL9jhpILKqrk9LyJsRqGVMAnIdDXVe3QMx6-4jCCNDR5eZ8p3kYTpfeJWQn2ZnEr9gGrRNSc3_hN8YIre3sSokgs6gyygP4xuFPuDA_5LQ1NWTt8V-BIMz6fJoZsW59No3lyVLwVL-Ona98Qmx2NUTliQJKGBJ4ParaU3DlMmYDIJP7MLyNfxwlv5SOpnui9XAHLqMnkXcvsjMv_RbVq5]--></g></svg>